<svg width="12" height="11" viewBox="0 0 12 11" fill="none" xmlns="http://www.w3.org/2000/svg">
<path d="M10.3298 1.76103C10.0714 1.50249 9.76457 1.2974 9.42686 1.15747C9.08916 1.01755 8.7272 0.945526 8.36166 0.945526C7.99611 0.945526 7.63415 1.01755 7.29645 1.15747C6.95874 1.2974 6.65192 1.50249 6.3935 1.76103L5.85719 2.29734L5.32088 1.76103C4.79889 1.23905 4.09093 0.945797 3.35273 0.945797C2.61453 0.945797 1.90656 1.23905 1.38457 1.76103C0.862585 2.28302 0.569336 2.99099 0.569336 3.72919C0.569336 4.46739 0.862585 5.17536 1.38457 5.69734L1.92088 6.23365L5.85719 10.17L9.7935 6.23365L10.3298 5.69734C10.5883 5.43892 10.7934 5.1321 10.9334 4.7944C11.0733 4.45669 11.1453 4.09473 11.1453 3.72919C11.1453 3.36364 11.0733 3.00168 10.9334 2.66398C10.7934 2.32628 10.5883 2.01945 10.3298 1.76103V1.76103Z" stroke="#161616" stroke-width="0.728571" stroke-linecap="round" stroke-linejoin="round"/>
</svg>
